<?xml version="1.0" standalone="no"?><!DOCTYPE svg PUBLIC "-//W3C//DTD SVG 1.1//EN" "http://www.w3.org/Graphics/SVG/1.1/DTD/svg11.dtd"><svg t="1779163535934" class="icon" viewBox="0 0 1024 1024" version="1.1" xmlns="http://www.w3.org/2000/svg" p-id="6368" data-darkreader-inline-fill="" xmlns:xlink="http://www.w3.org/1999/xlink" width="200" height="200"><path d="M274.8805 824.415556c1.355668-8.162251 2.57012-16.352744 4.076418-24.486752 6.881898-37.167896 23.714774-69.64744 48.305084-98.163538 40.688866-47.184775 92.844424-75.183084 153.71768-87.082835 40.990126-8.011621 81.989666-6.618295 122.311373 5.328528 2.080574 0.611933 4.227048 0.979094 7.635046 1.751071-9.696791-13.650823-18.612191-26.218994-27.555833-38.777751C498.885796 464.335092 414.410738 345.676492 329.86978 227.064963c-6.025191-8.454096-8.190494-16.992921-5.460329-27.480519 6.863069-26.322552 23.422929-45.480776 44.53934-61.24983 33.552781-25.061028 71.991615-39.935718 112.247421-50.140884 22.60388-5.723931 45.960908-8.46351 68.621274-14.008569 19.28061-4.716595 38.49532-10.38404 56.928638-17.642512C637.032123 44.624069 664.653857 28.403126 684.433428 0c3.191468 16.070314 7.2114 32.027655 9.320217 48.229769 1.703999 13.057718 2.089988 26.463768 1.355668 39.625044-2.984352 53.172309-24.477338 97.193859-67.002004 130.624253-28.450198 22.368521-61.475775 33.006748-96.798455 37.233796-21.088168 2.523049-42.374037 3.332684-64.111796 4.942539 0.310674 0.781392 0.753149 2.457148 1.581613 3.916374 40.726524 71.436168 81.490705 142.862922 122.254886 214.280261 40.058104 70.174644 80.153866 140.321044 120.155484 210.514517 8.46351 14.846447 18.197959 29.241004 24.618553 44.944157 19.205296 47.024731 17.143551 94.360136-3.08791 140.575232-27.791192 63.490448-76.92474 104.913634-140.772934 130.22885-37.111409 14.72406-75.926818 21.031682-115.702491 18.207373-61.005057-4.330606-114.544525-25.823591-155.967712-72.095173C288.691367 915.951384 274.8805 870.574166 274.8805 824.415556 276.236168 816.243891 274.8805 830.53489 274.8805 824.415556z" p-id="6369"></path></svg>