<?xml version="1.0" standalone="no"?><!DOCTYPE svg PUBLIC "-//W3C//DTD SVG 1.1//EN" "http://www.w3.org/Graphics/SVG/1.1/DTD/svg11.dtd"><svg t="1779163421106" class="icon" viewBox="0 0 1024 1024" version="1.1" xmlns="http://www.w3.org/2000/svg" p-id="30166" data-darkreader-inline-fill="" xmlns:xlink="http://www.w3.org/1999/xlink" width="200" height="200"><path d="M512 96c229.76 0 416 186.24 416 416s-186.24 416-416 416S96 741.76 96 512 282.24 96 512 96z m0 234.666667c-63.488 0-117.333333 52.053333-117.333333 124.458666 0 42.154667 13.653333 69.589333 42.666666 97.024a94.890667 94.890667 0 0 1 30.890667 102.485334c-10.069333 37.461333-36.138667 53.504-93.312 73.045333l-19.029333 6.4a735.573333 735.573333 0 0 0-18.645334 6.570667c-27.136 10.026667-46.634667 20.266667-60.714666 33.024A350.805333 350.805333 0 0 0 512 864c90.453333 0 172.970667-34.133333 235.349333-90.24-13.909333-12.458667-33.28-22.314667-60.714666-32.170667-4.778667-1.706667-9.770667-3.456-16.128-5.589333l-16.426667-5.504c-59.52-20.053333-86.357333-36.309333-97.877333-74.325333a101.376 101.376 0 0 1 3.541333-69.12c5.632-13.226667 14.293333-24.96 25.130667-34.005334 30.506667-27.52 44.458667-55.722667 44.458666-97.92 0-71.168-54.613333-124.458667-117.333333-124.458666z m0-170.666667a352 352 0 0 0-279.04 566.613333c20.906667-19.2 47.616-33.28 82.133333-45.994666 6.101333-2.261333 12.373333-4.48 20.224-7.125334l18.901334-6.4c36.864-12.586667 49.92-20.650667 53.12-31.872a32.725333 32.725333 0 0 0-2.218667-23.594666 38.570667 38.570667 0 0 0-10.112-11.52c-42.666667-40.149333-64.341333-83.797333-64.341333-144.981334C330.666667 346.837333 413.610667 266.666667 512 266.666667c97.706667 0 181.333333 81.578667 181.333333 188.458666 0 61.354667-22.272 106.325333-66.474666 146.218667a28.629333 28.629333 0 0 0-8.277334 10.88 39.552 39.552 0 0 0-1.28 24.832c3.285333 10.794667 17.365333 19.328 57.216 32.810667l16.426667 5.461333c6.698667 2.261333 12.117333 4.138667 17.365333 6.016 35.114667 12.629333 61.781333 26.325333 82.645334 45.226667A352 352 0 0 0 512 160z" fill="#141124" p-id="30167" data-darkreader-inline-fill="" style="--darkreader-inline-fill: var(--darkreader-background-141124, #100e1d);"></path></svg>