<?xml version="1.0" standalone="no"?><!DOCTYPE svg PUBLIC "-//W3C//DTD SVG 1.1//EN" "http://www.w3.org/Graphics/SVG/1.1/DTD/svg11.dtd"><svg t="1779163231837" class="icon" viewBox="0 0 1024 1024" version="1.1" xmlns="http://www.w3.org/2000/svg" p-id="23275" data-darkreader-inline-fill="" xmlns:xlink="http://www.w3.org/1999/xlink" width="200" height="200"><path d="M879.928747 213.333333h-292.437334a38.4 38.4 0 1 0 0 76.842667h254.037334v457.386667l-363.392 0.725333a38.4 38.4 0 0 0-0.469334 76.8l0.597334-0.042667 396.373333-0.810666 0.597333-0.085334c1.621333 0.170667 2.986667 0.938667 4.693334 0.938667a38.4 38.4 0 0 0 38.4-38.4V251.733333a38.4 38.4 0 0 0-38.4-38.4" fill="#FFFFFF" p-id="23276" data-darkreader-inline-fill="" style="--darkreader-inline-fill: var(--darkreader-background-ffffff, #181a1b);"></path><path d="M543.928747 481.066667h200.832a38.4 38.4 0 1 0 0-76.8h-200.832a38.4 38.4 0 0 0 0 76.8M536.760747 659.754667h208.042666a38.4 38.4 0 0 0 0-76.842667H536.760747a38.4 38.4 0 0 0 0 76.8" fill="#FFFFFF" p-id="23277" data-darkreader-inline-fill="" style="--darkreader-inline-fill: var(--darkreader-background-ffffff, #181a1b);"></path><path d="M308.963413 290.474667l146.602667 1.109333A38.442667 38.442667 0 0 0 456.20608 214.741333L269.411413 213.376c-2.730667-0.042667-5.12 0.981333-7.68 1.493333-1.706667 0-3.285333-0.426667-4.949333-0.128a38.4 38.4 0 0 0-31.317333 44.373334l62.336 354.816c-28.288 5.205333-88.277333-3.541333-138.026667 25.344-54.101333 31.402667-97.536 102.570667-75.776 156.544 9.642667 23.978667 46.378667 85.717333 129.536 71.338666 6.4-1.109333 13.056-2.56 20.053333-4.266666 68.778667-16.768 116.053333-46.208 140.544-87.466667 24.917333-42.026667 15.829333-80.298667 15.445334-81.194667L308.963413 290.474667z" fill="#FFFFFF" p-id="23278" data-darkreader-inline-fill="" style="--darkreader-inline-fill: var(--darkreader-background-ffffff, #181a1b);"></path></svg>