<?xml version="1.0" standalone="no"?><!DOCTYPE svg PUBLIC "-//W3C//DTD SVG 1.1//EN" "http://www.w3.org/Graphics/SVG/1.1/DTD/svg11.dtd"><svg t="1779163155083" class="icon" viewBox="0 0 1024 1024" version="1.1" xmlns="http://www.w3.org/2000/svg" p-id="21466" data-darkreader-inline-fill="" xmlns:xlink="http://www.w3.org/1999/xlink" width="200" height="200"><path d="M896 288h-64V256a96 96 0 0 0-96-96H160a96 96 0 0 0-96 96v384a96 96 0 0 0 96 96h448v32a96 96 0 0 0 96 96h192a96 96 0 0 0 96-96V384a96 96 0 0 0-96-96zM160 672a32 32 0 0 1-32-32V256a32 32 0 0 1 32-32h576a32 32 0 0 1 32 32v32h-64a96 96 0 0 0-96 96v288H160z m768 96a32 32 0 0 1-32 32h-192a32 32 0 0 1-32-32V384a32 32 0 0 1 32-32h192a32 32 0 0 1 32 32v384z m-384 64a32 32 0 0 1-32 32h-160a32 32 0 0 1 0-64h160a32 32 0 0 1 32 32z m320-384a32 32 0 0 1-32 32h-64a32 32 0 0 1 0-64h64a32 32 0 0 1 32 32z" p-id="21467"></path></svg>