<?xml version="1.0" standalone="no"?><!DOCTYPE svg PUBLIC "-//W3C//DTD SVG 1.1//EN" "http://www.w3.org/Graphics/SVG/1.1/DTD/svg11.dtd"><svg t="1779163017487" class="icon" viewBox="0 0 1024 1024" version="1.1" xmlns="http://www.w3.org/2000/svg" p-id="13615" data-darkreader-inline-fill="" xmlns:xlink="http://www.w3.org/1999/xlink" width="200" height="200"><path d="M960 368.32l-47.36-47.36-130.24 130.24-130.24-130.24-47.36 47.36 130.24 130.24-130.24 130.24 47.36 47.36 130.24-130.24 130.24 130.24L960 628.8l-130.24-130.24L960 368.32zM493.12 162.88a32 32 0 0 0-34.56 5.44l-219.2 198.4H96a32 32 0 0 0-32 32v256a32 32 0 0 0 32 32h155.52l208.32 171.2A32 32 0 0 0 480 864a30.08 30.08 0 0 0 13.76-3.2A32 32 0 0 0 512 832V192a32 32 0 0 0-18.88-29.12zM448 764.16l-164.8-135.36a32 32 0 0 0-20.16-7.36H128v-192h123.84a32 32 0 0 0 21.44-8.32L448 264.32z" p-id="13616"></path></svg>