<?xml version="1.0" standalone="no"?><!DOCTYPE svg PUBLIC "-//W3C//DTD SVG 1.1//EN" "http://www.w3.org/Graphics/SVG/1.1/DTD/svg11.dtd"><svg t="1779162976019" class="icon" viewBox="0 0 1024 1024" version="1.1" xmlns="http://www.w3.org/2000/svg" p-id="11529" data-darkreader-inline-fill="" xmlns:xlink="http://www.w3.org/1999/xlink" width="200" height="200"><path d="M699.0336 761.9072a25.6 25.6 0 0 1-16.1792-45.4144C736.9728 672.512 768 607.2832 768 537.6512s-31.0272-134.8096-85.0944-178.8416a25.5488 25.5488 0 1 1 32.3072-39.68C781.312 372.8896 819.2 452.5568 819.2 537.7024s-37.888 164.7616-103.9872 218.5728a25.6 25.6 0 0 1-16.128 5.7344z" fill="" p-id="11530"></path><path d="M795.904 881.1008a25.6 25.6 0 0 1-16.1792-45.4144C869.888 762.368 921.6 653.7216 921.6 537.6512s-51.712-224.7168-141.8752-298.0352a25.5488 25.5488 0 1 1 32.3072-39.68C914.176 283.0336 972.8 406.1696 972.8 537.7024s-58.5728 254.6688-160.768 337.7664a25.6 25.6 0 0 1-16.128 5.7344zM602.2144 642.6624a25.6 25.6 0 0 1-16.1792-45.4144c18.0224-14.6944 28.3648-36.4032 28.3648-59.5968s-10.3424-44.9536-28.3648-59.5968a25.5488 25.5488 0 1 1 32.3072-39.68c30.0544 24.4224 47.2576 60.6208 47.2576 99.328s-17.2544 74.9056-47.2576 99.328a25.6 25.6 0 0 1-16.128 5.7344zM417.28 164.1984c-12.6464 0-25.2928 5.3248-37.6832 15.8208L169.7792 358.3488H76.8c-42.3424 0-76.8 34.4576-76.8 76.8v204.8c0 42.3424 34.4576 76.8 76.8 76.8h92.9792l209.8176 178.3296c12.3392 10.496 25.0368 15.8208 37.6832 15.8208a40.7552 40.7552 0 0 0 34.304-18.5344c6.0928-9.1648 9.216-20.8896 9.216-34.816v-640c0-36.864-21.8624-53.4016-43.52-53.4016zM51.2 640v-204.8a25.6 25.6 0 0 1 25.6-25.6H153.6v256H76.8a25.6 25.6 0 0 1-25.6-25.6z m358.4 213.4528l-204.8-174.08V395.8272l204.8-174.08v631.7056z" fill="" p-id="11531"></path></svg>