<?xml version="1.0" standalone="no"?><!DOCTYPE svg PUBLIC "-//W3C//DTD SVG 1.1//EN" "http://www.w3.org/Graphics/SVG/1.1/DTD/svg11.dtd"><svg t="1779162820826" class="icon" viewBox="0 0 1024 1024" version="1.1" xmlns="http://www.w3.org/2000/svg" p-id="3652" data-darkreader-inline-fill="" xmlns:xlink="http://www.w3.org/1999/xlink" width="200" height="200"><path d="M544 320v173.888l144.48 86.656a32 32 0 1 1-32.96 54.912l-160-96A32 32 0 0 1 480 512v-192a32 32 0 0 1 64 0z m352-96a32 32 0 0 0-32 32v72a1732.416 1732.416 0 0 0-80.48-87.328 384 384 0 1 0-8 550.816 32 32 0 1 0-44-46.56 320 320 0 1 1 6.624-459.328A1797.536 1797.536 0 0 1 828 384H736a32 32 0 1 0 0 64h160a32 32 0 0 0 32-32V256a32 32 0 0 0-32-32z" p-id="3653"></path></svg>